<svg aria-hidden="true" style="position: absolute; width: 0; height: 0; overflow: hidden;" version="1.1" xmlns="http://www.w3.org/2000/svg" xmlns:xlink="http://www.w3.org/1999/xlink">
<defs>
<symbol id="icon-filter" viewBox="0 0 31 32">
<path d="M0.389 0.546c-0.307 0.307-0.478 0.785-0.341 1.092 0.102 0.273 2.048 3.516 4.369 7.168l4.164 6.69 0.171 5.495 0.171 5.461 5.7 2.901c4.676 2.389 5.837 2.833 6.315 2.526 0.546-0.341 0.649-1.229 0.785-8.533l0.171-8.158 4.198-6.69c2.287-3.652 4.164-6.895 4.164-7.168 0-1.297-0.444-1.331-15.053-1.331-12.732 0-14.302 0.068-14.814 0.546zM26.501 2.901c0 0.068-1.673 2.833-3.755 6.076l-3.755 5.939v13.756l-3.925-1.946-3.925-1.98v-10.035l-1.98-3.174c-1.126-1.741-2.799-4.437-3.789-6.007l-1.741-2.799h11.435c6.281 0 11.435 0.068 11.435 0.171z"></path>
</symbol>
</defs>
</svg>
