<svg aria-hidden="true" style="position: absolute; width: 0; height: 0; overflow: hidden;" version="1.1" xmlns="http://www.w3.org/2000/svg" xmlns:xlink="http://www.w3.org/1999/xlink">
<defs>
<symbol id="icon-chbox" viewBox="0 0 32 32">
<path d="M6.497 0.234c0.714-0.201 3.090-0.256 9.91-0.227 8.605 0.036 9.013 0.055 10.014 0.468 2.638 1.088 4.744 3.532 5.363 6.224 0.291 1.269 0.287 17.023-0.005 18.435-0.685 3.31-3.672 6.145-7.036 6.678-1.58 0.251-15.939 0.25-17.489-0-2.48-0.4-5.003-2.226-6.113-4.424-1.047-2.073-1.138-2.972-1.14-11.292-0.001-4.217 0.086-8.203 0.192-8.858 0.536-3.285 3.061-6.090 6.305-7.004zM7.109 2.878c-1.099 0.302-2.45 1.244-3.168 2.21-1.125 1.512-1.118 1.444-1.124 10.608-0.003 5.515 0.073 8.785 0.217 9.323 0.456 1.697 2.272 3.522 3.959 3.977 0.928 0.25 16.591 0.321 17.705 0.080 1.053-0.228 2.038-0.806 2.836-1.665 1.822-1.962 1.867-2.268 1.785-12.133l-0.067-8.077-0.569-1.162c-0.644-1.316-1.632-2.277-2.988-2.906-0.89-0.413-1.264-0.432-9.286-0.472-6.213-0.031-8.6 0.025-9.298 0.217zM18.448 15.271l-6.114 6.14-2.451-2.453c-2.631-2.632-3.131-2.89-3.975-2.044-0.791 0.794-0.567 1.156 2.837 4.569 3.014 3.023 3.286 3.244 3.823 3.114 0.726-0.176 13.68-13.070 13.867-13.803 0.204-0.796-0.334-1.538-1.165-1.605-0.678-0.055-0.957 0.193-6.821 6.082z"></path>

</symbol>
<symbol id="icon-box" viewBox="0 0 32 32">
<path d="M6.497 0.234c0.714-0.201 3.090-0.256 9.91-0.227 8.605 0.036 9.013 0.055 10.014 0.468 2.638 1.088 4.744 3.532 5.363 6.224 0.291 1.269 0.287 17.023-0.005 18.435-0.685 3.31-3.672 6.145-7.036 6.678-1.58 0.251-15.939 0.25-17.489-0-2.48-0.4-5.003-2.226-6.113-4.424-1.047-2.073-1.138-2.972-1.14-11.292-0.001-4.217 0.086-8.203 0.192-8.858 0.536-3.285 3.061-6.090 6.305-7.004zM7.109 2.878c-1.099 0.302-2.45 1.244-3.168 2.21-1.125 1.512-1.118 1.444-1.124 10.608-0.003 5.515 0.073 8.785 0.217 9.323 0.456 1.697 2.272 3.522 3.959 3.977 0.928 0.25 16.591 0.321 17.705 0.080 1.053-0.228 2.038-0.806 2.836-1.665 1.822-1.962 1.867-2.268 1.785-12.133l-0.067-8.077-0.569-1.162c-0.644-1.316-1.632-2.277-2.988-2.906-0.89-0.413-1.264-0.432-9.286-0.472-6.213-0.031-8.6 0.025-9.298 0.217z"></path>

</symbol>
</defs>
</svg>
