<svg aria-hidden="true" style="position: absolute; width: 0; height: 0; overflow: hidden;" version="1.1" xmlns="http://www.w3.org/2000/svg" xmlns:xlink="http://www.w3.org/1999/xlink">
<defs>
<symbol id="icon-man" viewBox="0 0 19 32">
<path d="M5.296 3.628c-3.485 3.485-3.655 3.67-3.655 4.18 0 0.723 0.496 1.233 1.218 1.233 0.496 0 0.694-0.156 2.919-2.366l2.38-2.366v8.912l-0.878 0.17c-0.496 0.099-1.431 0.439-2.097 0.765-0.963 0.482-1.445 0.836-2.409 1.813-1.318 1.332-1.899 2.295-2.437 3.981-0.425 1.374-0.453 3.854-0.057 5.157 1.020 3.4 3.641 5.908 6.985 6.687 1.218 0.283 3.329 0.269 4.463-0.014 3.301-0.85 5.965-3.514 6.857-6.886 0.312-1.204 0.312-3.443-0.014-4.661-0.581-2.21-2.182-4.406-4.080-5.582-0.992-0.623-2.904-1.36-3.485-1.36-0.298 0-0.298-0.043-0.298-4.491v-4.491l2.38 2.366c2.196 2.182 2.423 2.366 2.89 2.366 0.638 0 1.247-0.638 1.247-1.318 0-0.383-0.425-0.864-3.429-3.896-1.899-1.899-3.613-3.542-3.825-3.655-0.793-0.411-0.85-0.368-4.675 3.457zM11.842 16.068c3.542 1.388 5.384 5.341 4.137 8.855-1.020 2.89-4.109 4.888-7.126 4.605-3.655-0.326-6.361-3.259-6.361-6.871 0-1.984 0.553-3.372 1.884-4.789 0.793-0.85 1.743-1.488 2.649-1.814 1.374-0.496 3.542-0.496 4.817 0.014z"></path>
</symbol>
</defs>
</svg>
