<svg width="300" height="300" viewBox="0 0 534 536" fill="none" xmlns="http://www.w3.org/2000/svg">
<path fill-rule="evenodd" clip-rule="evenodd" d="M315.5 1.33782C305.825 4.53782 295.558 11.5138 284.995 22.0628C280.598 26.4538 277 30.3738 277 30.7738C277 31.1728 278.976 32.5488 281.39 33.8288C283.805 35.1098 287.024 37.4558 288.544 39.0428L291.307 41.9268L295.903 38.0948C325.494 13.4298 347.887 21.2728 359.869 60.4968C365.763 79.7928 368 99.3018 368 131.412V154.906L364.75 155.37C362.962 155.625 352.396 157.047 341.269 158.528C330.143 160.01 314.566 162.429 306.655 163.902L292.271 166.582L281.886 157.747C276.174 152.887 264.236 143.253 255.357 136.336L239.215 123.761L241.485 118.629C244.3 112.264 253.938 93.8348 255.125 92.5468C256.746 90.7868 255.967 89.5058 252.224 87.7728C250.176 86.8248 247.215 84.8498 245.644 83.3848C242.214 80.1838 243.263 78.8908 233.379 98.4968C229.221 106.747 225.682 113.636 225.516 113.806C225.351 113.976 221.679 111.738 217.357 108.832C176.571 81.4058 136.188 63.6338 108.905 61.1018C90.796 59.4218 78.961 62.7628 70.723 71.8818C63.852 79.4868 61.796 86.2238 61.839 100.997C61.92 128.889 78.194 168.321 108.882 214.98C112.247 220.096 115 224.401 115 224.545C115 224.69 112.113 226.159 108.585 227.81C90.106 236.458 60.617 254.237 43.34 267.147C25.223 280.685 11.145 296.114 4.33396 309.898C1.08296 316.478 0.538957 318.604 0.178957 326.136C-0.187043 333.8 0.0569563 335.443 2.29296 340.325C7.18996 351.022 16.536 358.668 32.411 364.966C38.851 367.521 54.478 371.961 57.134 371.99C57.687 371.996 58.08 369.128 59.236 356.648C59.481 354.006 59.1 353.673 54 352.063C40.589 347.828 29.419 339.981 24.25 331.161C21.045 325.691 20.689 317.092 23.347 309.31C29.682 290.764 54.504 267.83 91.126 246.688C103.141 239.751 118.947 231.796 119.925 232.193C120.338 232.36 125.743 239.215 131.937 247.425C143.522 262.78 152.783 274.195 163.711 286.591L169.965 293.684L168.081 303.591C166.472 312.052 161.669 346.203 160.784 355.475C160.533 358.102 160.029 358.531 156.5 359.119C154.3 359.486 144.982 359.946 135.793 360.141L119.085 360.497L119.117 367.722C119.135 371.695 118.82 375.479 118.418 376.13C117.86 377.033 121.455 377.151 133.593 376.63C142.342 376.254 151.542 375.688 154.037 375.371L158.573 374.796L158.167 403.316C157.928 420.109 158.233 437.317 158.909 445.167C163.801 502 180.156 533.715 205.628 535.759C234.314 538.062 270.585 499.716 303.608 432.172L310.123 418.847L312.811 420.634C365.649 455.747 413.611 474.294 440.5 470.01C463.589 466.332 474.059 449.925 470.926 422.332C469.745 411.921 464.881 391.997 463.521 391.997C463.346 391.997 460.637 393.347 457.5 394.997C454.363 396.647 450.568 397.997 449.065 397.997C447.563 397.997 446.101 398.229 445.817 398.513C445.533 398.797 445.952 401.384 446.748 404.263C447.543 407.142 448.263 414.457 448.347 420.519C448.496 431.259 448.41 431.72 445 438.519C442.261 443.98 440.447 446.201 436.657 448.733C429.744 453.354 425.209 454.294 412.5 453.741C389.071 452.722 359.084 440.487 321.663 416.678C315.164 412.544 313.914 411.334 314.347 409.595C314.634 408.441 317.902 400.072 321.609 390.997C325.316 381.922 331.334 365.774 334.982 355.113L341.615 335.729L353.058 331.732C359.351 329.533 372.15 324.612 381.5 320.796C390.85 316.98 399.265 313.618 400.199 313.324C401.487 312.919 403.431 315.173 408.239 322.644C411.726 328.063 415.765 334.522 417.214 336.997C422.394 345.844 422.08 345.676 426.889 342.193C429.214 340.508 432.44 338.84 434.058 338.484C435.676 338.129 437 337.495 437 337.075C437 336.271 425.476 317.658 420.248 310.016L417.181 305.534L433.841 296.946C468.873 278.887 492.775 262.475 510.782 244.114C535.687 218.72 540.288 195.777 523.858 178.909C513.014 167.775 493.147 160.077 463 155.325C453.399 153.812 445.274 153.512 413.804 153.505L376.107 153.497L376.685 133.497C378.049 86.2488 371.212 44.3018 358.455 21.6578C354.491 14.6198 345.943 5.82182 340.361 3.03482C334.495 0.104816 321.837 -0.759184 315.5 1.33782ZM253.306 37.9948C238.167 46.6768 235.606 66.6988 248.044 79.1368C256.422 87.5138 267.362 89.1928 278.095 83.7468C288.265 78.5868 293.959 68.2878 292.544 57.6158C291.388 48.9048 286.54 41.6968 279.119 37.6578C274.994 35.4128 273 34.9978 266.365 35.0058C259.477 35.0148 257.855 35.3858 253.306 37.9948ZM100.803 86.3258C78.637 92.6248 73.766 115.252 86.623 152.206C92.63 169.473 102.06 188.128 116.342 210.997C119.605 216.222 122.366 220.612 122.476 220.752C122.587 220.893 129.387 218.129 137.589 214.611C149.815 209.367 172.085 200.803 192 193.689C195.228 192.536 195.721 191.782 198.354 183.968C202.894 170.49 211.949 146.112 215.182 138.661C216.813 134.901 217.921 131.234 217.644 130.511C216.436 127.364 169.966 100.839 157.5 96.1808C155.85 95.5638 152.025 94.1228 149 92.9778C131.411 86.3188 110.827 83.4778 100.803 86.3258ZM229.936 144.635C226.228 153.263 220.874 167.252 217.512 177.097L214.233 186.697L227.367 182.806C234.59 180.665 246.8 177.343 254.5 175.422C273.218 170.752 272.125 171.366 268 167.835C265.313 165.534 241.308 146.789 233.263 140.708C232.363 140.029 231.454 141.102 229.936 144.635ZM375.603 164.135C375.372 164.884 374.201 174.497 373 185.497C371.8 196.497 369.572 213.133 368.05 222.465L365.283 239.434L375.399 251.465C380.963 258.083 390.385 269.685 396.336 277.247C402.287 284.81 407.419 290.997 407.74 290.997C410.018 290.997 440.186 274.001 452.987 265.506C499.282 234.782 515.698 205.807 498.138 185.807C490.669 177.3 472.923 169.77 451 165.805C441.465 164.08 434.076 163.643 407.762 163.249C381.546 162.856 375.95 163.01 375.603 164.135ZM355 165.098C344.569 166.269 313.742 170.843 306.5 172.294L300.5 173.497L329.609 202.511L358.719 231.524L360.855 218.011C363.077 203.954 365.407 185.065 366.563 171.747C367.336 162.835 368.615 163.57 355 165.098ZM260.5 181.929C252.25 184.008 237.907 187.878 228.626 190.528C208.926 196.154 211.52 193.279 204.557 217.208C198.437 238.245 192.662 261.634 188.54 282.084L185.068 299.304L189.918 304.901C198.235 314.498 232.905 347.997 234.52 347.997C243.227 347.997 330.491 324.264 336.744 320.196C339.282 318.545 354.661 258.056 353.814 253.058C353.402 250.629 330.659 225.816 314.345 209.997C289.86 186.256 280.422 177.992 277.883 178.073C276.572 178.114 268.75 179.85 260.5 181.929ZM188.5 203.266C173.885 208.115 129.878 225.786 128.174 227.49C127.529 228.134 131.805 234.466 142.022 247.997C152.866 262.358 171.02 284.311 171.585 283.746C171.817 283.513 172.49 280.662 173.079 277.41C174.746 268.201 179.609 248.535 186.129 224.627C189.409 212.599 191.96 202.648 191.797 202.514C191.634 202.38 190.15 202.719 188.5 203.266ZM360.613 262.747C360.327 263.709 358.752 270.347 357.114 277.497C355.477 284.647 352.551 296.33 350.613 303.458C348.675 310.587 347.184 316.514 347.299 316.629C347.55 316.881 368.668 308.567 382.221 302.88L391.941 298.802L386.033 291.041C378.613 281.293 362.061 260.997 361.532 260.997C361.313 260.997 360.9 261.785 360.613 262.747ZM181.125 325.183C178.301 346.184 177.168 356.397 177.606 356.892C178.303 357.677 219.622 351.509 223 350.116C224.074 349.673 218.649 343.725 203.909 329.183L183.319 308.868L181.125 325.183ZM326.5 340.625C318.825 343.478 285.241 352.802 267.23 357.08C251.707 360.767 249.257 361.601 250.291 362.848C253.72 366.982 298.255 401.922 304.045 405.021C305.783 405.951 306.277 405.434 308.578 400.281C316.861 381.735 332.699 338.924 331.224 339.067C330.826 339.106 328.7 339.807 326.5 340.625ZM432.478 343.868C420.869 349.141 414.771 362.818 418.425 375.386C422.984 391.069 441.209 398.709 456 391.138C460.085 389.047 462.529 386.843 465.5 382.566C469.419 376.926 469.5 376.634 469.488 368.153C469.478 361.177 469.05 358.697 467.282 355.373C464.823 350.751 460.603 346.855 454.906 343.949C449.782 341.335 438.146 341.293 432.478 343.868ZM78.127 344.074C73.111 346.082 67.678 351.459 65.202 356.867C58.829 370.787 65.318 387.674 78.876 392.454C84.854 394.562 93.846 394.421 99.167 392.136C104.491 389.85 111.276 382.669 113.078 377.413C117.507 364.498 111.18 349.331 99.282 344.345C95.614 342.808 81.733 342.63 78.127 344.074ZM227 365.575C220.675 366.867 206.671 369.167 195.881 370.685L176.262 373.446L175.637 381.472C173.344 410.923 176.887 451.853 183.562 473.017C191.223 497.307 202.26 508.997 217.531 508.997C235.467 508.997 256.516 491.129 278.202 457.497C287.681 442.796 302 416.697 302 414.121C302 413.612 295.087 407.985 286.637 401.616C278.187 395.247 264.01 383.953 255.133 376.517C246.256 369.081 238.882 363.049 238.747 363.112C238.611 363.175 233.325 364.283 227 365.575Z" />
<path fill-rule="evenodd" clip-rule="evenodd" d="M263.002 218.335C261.665 219.054 258.726 220.71 256.47 222.016C254.215 223.322 250.182 225.647 247.508 227.182C229.12 237.744 227.103 238.96 226.011 240.144C223.899 242.434 223.939 241.888 224.033 266.665C224.117 288.691 224.12 288.797 224.774 290.006C225.975 292.224 226.841 292.839 236.572 298.37C239.672 300.132 242.122 300.856 245.078 300.885C249.082 300.924 250.944 300.279 253.121 298.102C256.182 295.042 255.996 296.733 256.097 270.928C256.162 254.33 256.094 248.403 255.835 248.091C255.38 247.543 250.386 247.495 249.848 248.033C249.571 248.31 249.483 253.478 249.483 269.439C249.483 292.415 249.535 291.722 247.712 293.254C246.44 294.323 244.741 294.573 242.735 293.986C241.084 293.502 231.065 287.787 230.609 287.069C230.468 286.848 230.352 277.285 230.349 265.818L230.345 244.969L231.332 244.219C231.875 243.806 233.139 243.003 234.142 242.433C236.463 241.112 247.217 234.925 252.369 231.945C254.541 230.688 257.207 229.159 258.293 228.546C259.379 227.934 261.84 226.525 263.761 225.415C265.683 224.305 267.412 223.395 267.605 223.394C267.798 223.392 270.122 224.638 272.769 226.163C275.417 227.688 279.771 230.193 282.444 231.729C287.951 234.892 295.661 239.345 300.816 242.34C302.733 243.453 304.406 244.528 304.532 244.727C304.659 244.927 304.765 254.548 304.768 266.109L304.772 287.128L303.633 287.91C303.007 288.341 299.623 290.333 296.114 292.337C288.178 296.871 283.383 299.626 274.849 304.555C271.174 306.677 267.956 308.43 267.699 308.45C267.442 308.47 265.107 307.23 262.511 305.695C259.915 304.16 257.597 302.905 257.358 302.906C257.121 302.907 256.516 303.131 256.015 303.403C255.513 303.676 254.146 304.28 252.977 304.745C251.807 305.21 250.85 305.764 250.85 305.975C250.85 306.366 254.011 308.351 261.236 312.496C264.658 314.459 265.506 314.818 267.048 314.957C269.201 315.153 270.094 314.794 276.064 311.342C278.237 310.086 283.295 307.177 287.305 304.876C291.315 302.575 296.373 299.664 298.545 298.408C300.717 297.152 303.706 295.444 305.187 294.613C308.192 292.927 309.54 291.731 310.412 289.976C310.978 288.836 311 287.932 311 265.878V242.965L310.334 241.722C309.374 239.929 308.211 239.03 302.942 236.001C300.357 234.515 294.823 231.321 290.646 228.903C268.327 215.981 270.335 217.015 267.592 217.022C265.63 217.027 265.21 217.147 263.002 218.335ZM272.723 246.881C264.243 248.306 260.069 253.04 261.068 260.099C261.534 263.387 263.289 265.579 266.638 267.056C268.58 267.913 273.042 268.879 276.672 269.229C283.254 269.864 287.66 270.968 288.847 272.278C289.658 273.173 289.622 275.895 288.785 277.024C287.104 279.29 284.637 279.991 278.343 279.991C270.019 279.991 267.575 278.588 266.374 273.122C266.16 272.154 265.54 271.958 262.669 271.952C260.895 271.949 260.416 272.056 259.963 272.557C259.461 273.11 259.445 273.352 259.782 275.238C260.531 279.426 262.668 282.314 266.338 284.097C270.254 285.999 276.476 286.85 282.056 286.245C289.25 285.465 293.669 283.084 295.631 278.928C296.33 277.447 296.418 276.883 296.418 273.921C296.417 270.124 295.97 268.871 293.995 267.139C291.524 264.972 288.25 263.954 279.71 262.701C274.032 261.867 270.744 261.166 269.444 260.511C267.964 259.765 267.608 257.838 268.596 255.927C269.71 253.775 272.042 253.022 277.583 253.028C284.114 253.035 286.437 254.172 288.029 258.139L288.881 260.264L291.281 260.354C295.18 260.5 295.539 260.253 295.063 257.747C293.996 252.127 290.807 248.882 284.856 247.361C281.768 246.572 275.936 246.341 272.723 246.881Z" />
</svg>
