<svg width="200" height="200" viewBox="0 0 380 380"  xmlns="http://www.w3.org/2000/svg">
<path fill ="#00ccec" fill-rule="evenodd" clip-rule="evenodd" d="M184.17 18.0384C165.077 25.1806 149.299 51.0878 138.448 93.1142L137.323 97.4749L125.835 94.4574C99.3484 87.5 72.0117 86.3235 57.2273 91.5028C48.7202 94.4841 40.2292 102.381 38.2215 109.181C32.9652 126.983 45.5506 153.214 73.4427 182.588L82.3855 192.005L78.3007 196.302C74.4679 200.332 74.0098 200.527 70.8946 199.44C56.2032 194.315 41.8674 210.308 48.4661 224.461L50.4577 228.735L45.3445 238.352C34.7219 258.329 34.1559 272.549 43.5568 283.236C51.0761 291.782 62.8029 295.52 82.1014 295.52C94.9912 295.52 110.467 293.312 125.835 289.28L137.323 286.265L138.448 290.626C148.218 328.465 162.677 354.329 179.139 363.41C187.203 367.858 196.34 367.858 204.404 363.41C220.865 354.329 235.326 328.464 245.094 290.627L246.22 286.27L256.373 288.923C263.08 290.675 266.527 292.082 266.527 293.067C266.527 296.103 269.933 300.997 274.201 304.09C277.834 306.723 279.63 307.273 284.574 307.27C291.48 307.266 295.78 305.108 300.049 299.509C302.707 296.022 303.27 295.802 311.119 295.182C323.756 294.182 332.189 290.872 338.634 284.384C349.252 273.693 349.342 259.692 338.921 239.649C332.262 226.842 323.528 215.458 307.851 199.15L300.981 192.005L309.999 182.588C332.933 158.639 346.621 134.613 346.621 118.306C346.621 106.125 338.878 95.9042 326.316 91.5028C311.532 86.3235 284.195 87.5 257.709 94.4574L246.221 97.4749L245.117 93.1142C244.509 90.7163 243.135 85.7742 242.062 82.1315L240.112 75.5086L242.763 71.7783C250.642 60.6984 243.455 44.9361 229.518 42.7328C225.72 42.1322 224.613 41.3073 221.822 36.9989C217.677 30.5972 209.407 22.8384 203.534 19.84C197.822 16.9239 189.275 16.1289 184.17 18.0384ZM184.538 29.5746C177.793 32.9159 170.15 42.2359 163.621 55.081C158.237 65.6747 150.138 88.078 148.524 96.8413L147.823 100.653L159.919 105.269C166.572 107.807 176.333 111.817 181.608 114.181C191.138 118.449 191.232 118.467 195.491 116.797C197.852 115.872 207.861 111.829 217.737 107.812L235.693 100.509L235.022 96.9236C234.652 94.951 233.425 90.3423 232.295 86.6804L230.24 80.0233L225.916 79.8534C215.667 79.4516 208.859 71.8595 208.859 60.832C208.859 55.6794 209.983 52.759 213.426 48.9753L215.592 46.5967L212.601 42.2786C206.689 33.743 197.637 27.3114 191.539 27.3135C190.199 27.3135 187.048 28.3308 184.538 29.5746ZM65.1086 100.412C53.8911 103.136 47.6021 109.33 47.6021 117.651C47.6021 132.008 60.1652 153.253 82.2466 176.237C89.5843 183.875 90.507 184.512 92.3076 183.183C93.3979 182.378 99.0472 177.864 104.862 173.152C110.677 168.44 118.361 162.532 121.936 160.022L128.438 155.459L129.766 143.022C130.497 136.182 131.946 125.581 132.987 119.465L134.88 108.344L132.624 107.39C128.765 105.759 113.749 102.281 103.134 100.56C91.1606 98.6183 72.7891 98.5467 65.1086 100.412ZM280.333 100.541C271.277 101.953 256.153 105.509 251.218 107.387L248.666 108.358L250.558 119.472C251.598 125.584 253.042 136.125 253.764 142.894L255.078 155.202L265.341 162.753C270.986 166.906 279.388 173.465 284.012 177.331L292.419 184.359L295.468 181.792C300.066 177.921 312.347 164.414 318.157 156.839C329.253 142.371 335.942 127.634 335.942 117.651C335.942 109.157 329.652 103.117 317.934 100.357C310.386 98.5798 292.341 98.6675 280.333 100.541ZM142.701 126.591C141.409 134.765 140.507 142.718 140.698 144.263L141.045 147.072L148.521 142.451C152.632 139.909 161.15 134.974 167.449 131.483C173.747 127.992 178.553 124.814 178.128 124.419C177.078 123.445 147.568 111.728 146.166 111.728C145.552 111.728 143.992 118.417 142.701 126.591ZM221.14 117.729C212.917 121.017 205.826 124.044 205.383 124.455C204.939 124.866 208.303 127.196 212.858 129.632C217.413 132.068 225.945 136.969 231.819 140.522L242.498 146.981L242.845 144.217C243.414 139.696 238.631 111.727 237.292 111.74C236.631 111.748 229.363 114.443 221.14 117.729ZM178.423 137.748C163.908 145.389 141.4 159.058 139.438 161.423C138.476 162.582 138.159 170.638 138.23 192.126L138.325 221.256L141.065 223.647C144.839 226.941 170.208 241.963 182.038 247.907L191.772 252.799L201.51 247.905C212.414 242.427 236.378 228.36 241.697 224.319L245.168 221.681V191.87V162.06L241.697 159.46C233.788 153.535 193.787 130.83 191.526 130.982C191.367 130.992 185.471 134.037 178.423 137.748ZM179.373 158.538C168.961 162.832 159.646 172.779 157.543 181.846C154.532 194.832 157.7 207.783 165.956 216.243C173.802 224.281 179.578 226.598 191.772 226.598C200.383 226.598 202.722 226.202 207.24 223.977C213.782 220.757 220.697 213.8 223.865 207.25C226.841 201.098 227.811 189.546 225.941 182.534C223.042 171.664 214.067 161.935 203.499 158.203C197.455 156.07 184.935 156.243 179.373 158.538ZM120.582 174.288C117.153 176.961 112.561 180.503 110.378 182.16C108.195 183.819 104.694 186.681 102.598 188.522L98.7877 191.87L102.714 195.343C104.875 197.254 107.682 199.537 108.955 200.419C110.227 201.3 114.657 204.786 118.8 208.166C122.942 211.546 126.526 214.31 126.764 214.31C127.003 214.31 127.263 204.212 127.342 191.87C127.42 179.528 127.334 169.431 127.151 169.431C126.967 169.431 124.011 171.617 120.582 174.288ZM255.847 191.993V214.556L258.784 212.646C261.166 211.098 269.802 204.286 283.346 193.272C285.146 191.809 283.072 189.741 268.944 178.904C264.384 175.406 259.806 171.843 258.772 170.987C257.738 170.13 256.656 169.431 256.37 169.431C256.082 169.431 255.847 179.584 255.847 191.993ZM85.9588 203.343C81.8782 207.151 81.608 207.724 82.8201 209.991C84.8631 213.812 83.7482 223.929 80.8306 228.028C77.2904 233.003 70.901 235.949 64.6109 235.508L59.4742 235.147L55.9533 240.962C51.3602 248.549 47.6641 259.537 47.6299 265.71C47.5914 272.542 50.8742 277.122 58.5654 280.97C63.9435 283.659 66.2449 284.117 76.7201 284.579C90.9171 285.204 102.996 283.797 121.552 279.354C134.233 276.317 135.129 275.936 134.651 273.786C133.324 267.83 130.853 251.094 129.7 240.258L128.424 228.272L121.921 223.708C118.346 221.198 110.373 215.106 104.204 210.17C98.0359 205.235 92.4122 200.741 91.7063 200.186C90.821 199.489 89.0397 200.468 85.9588 203.343ZM286.141 204.825C282.695 207.747 274.3 214.27 267.486 219.321L255.094 228.505L253.832 240.374C252.692 251.091 250.217 267.835 248.898 273.764C248.435 275.848 249.254 276.265 258.131 278.46C267.097 280.677 267.95 280.727 268.861 279.099C272.19 273.146 280.762 269.132 287.729 270.264C293.2 271.152 299.131 275.585 301.383 280.47C303.218 284.45 303.697 284.78 307.642 284.791C313.489 284.806 323.209 282.402 327.542 279.869C344.262 270.099 335.623 244.844 303.585 209.831C298.91 204.722 294.483 200.311 293.746 200.028C293.009 199.744 289.586 201.904 286.141 204.825ZM140.867 243.302C142.168 256.203 145.098 272.012 146.19 272.012C147.595 272.012 177.098 260.278 178.148 259.3C178.585 258.894 175.462 256.699 171.207 254.419C166.952 252.14 159.266 247.73 154.125 244.617C138.663 235.258 140.07 235.397 140.867 243.302ZM237.101 240.111C234.196 241.96 225.619 246.971 218.041 251.249L204.263 259.025L208.429 260.809C217.139 264.537 236.504 272.012 237.454 272.012C238.001 272.012 239.244 267.083 240.219 261.059C242.289 248.26 243.54 236.75 242.859 236.75C242.598 236.75 240.006 238.263 237.101 240.111ZM181.021 269.757C175.99 272.015 166.461 275.939 159.847 278.476L147.823 283.088L148.524 286.899C150.16 295.786 158.273 318.136 163.833 329.077C174.202 349.479 185.118 358.303 196.27 355.299C203.522 353.344 212.456 343.35 219.711 329.077C225.279 318.12 233.384 295.784 235.025 286.868L235.733 283.025L228.971 280.548C225.251 279.185 215.593 275.265 207.509 271.836C199.425 268.407 192.216 265.612 191.49 265.626C190.764 265.64 186.053 267.498 181.021 269.757Z" />
</svg>
