<svg width="561" height="500" viewBox="0 0 561 500" fill="none" xmlns="http://www.w3.org/2000/svg">
<path fill-rule="evenodd" clip-rule="evenodd" d="M289.2 54.233C318.603 27.087 352.315 7.52889 380.266 1.40096C388.825 -0.475013 400.004 -0.466224 407.332 1.42294C436.68 8.98983 452.121 38.7999 452.094 87.839C452.083 107.612 450.396 123.124 445.866 145.088C444.761 150.449 444.125 155.271 444.453 155.803C444.782 156.334 449.196 158.101 454.263 159.728C491.858 171.805 521.241 187.937 539.976 206.785C554.836 221.735 560.901 234.085 560.95 249.493C561.059 283.783 523.093 316.913 457.529 339.739C450.959 342.027 445.432 344.05 445.247 344.235C445.062 344.42 446.085 350.369 447.52 357.455C451.507 377.135 452.978 391.564 452.959 410.801C452.93 439.18 449.005 457.448 439.425 473.789C432.125 486.241 423.463 493.309 410.432 497.447C380.761 506.869 333.145 486.545 289.133 445.674L281.791 438.855L273.633 446.105C241.316 474.826 209.911 492.44 180.619 498.274C169.988 500.391 161.449 500.242 152.208 497.776C130.142 491.889 117.156 475.086 110.854 444.267C109.006 435.231 108.617 430.049 108.609 414.339C108.603 403.889 109.173 391.289 109.876 386.339C111.777 372.951 113.738 361.679 115.45 354.294C116.289 350.676 116.976 347.134 116.976 346.424C116.976 345.683 113.246 343.926 108.226 342.303C56.4622 325.559 17.7012 298.771 4.6582 270.727C1.2102 263.314 0.0302708 257.854 0.000241497 249.178C-0.116702 214.849 42.2473 179.26 106.976 159.311C111.651 157.87 115.996 156.53 116.632 156.332C117.468 156.073 117.243 153.527 115.82 147.156C110.615 123.845 108.651 106.825 108.688 85.339C108.709 72.7901 109.23 64.6129 110.406 58.339C115.987 28.5699 127.469 11.3048 146.737 3.71298C151.659 1.77401 154.399 1.44393 165.976 1.3951C174.439 1.35995 181.342 1.84774 184.476 2.70321C212.937 10.4649 240.756 26.6641 270.7 52.9112L280.924 61.8731L289.2 54.233ZM357.976 34.6309C371.164 28.6749 374.894 27.3228 383.976 25.2071C391.047 23.5601 401.536 24.0621 406.191 26.2711C414.766 30.3399 420.349 38.8341 424.713 54.4498C427.394 64.045 427.475 65.068 427.432 88.839C427.387 113.992 427.272 115.113 421.8 143.694L420.584 150.05L417.03 149.465C415.635 149.236 413.388 148.811 411.316 148.389C410.486 148.22 409.684 148.052 408.976 147.898C400.138 145.967 379.198 142.64 362.292 140.479L345.108 138.282L337.866 128.311C328.949 116.031 313.516 96.8521 304.496 86.839L297.74 79.339L306.108 71.4718C320.176 58.2462 345.478 40.275 357.976 34.6309ZM135.997 53.464C139.762 39.1549 145.068 31.1461 153.435 27.1402C157.987 24.961 159.445 24.7701 168.476 25.169C180.205 25.6881 189.18 28.38 204.301 35.9151C220.824 44.149 237.678 55.857 255.214 71.2818L263.952 78.9679L256.713 87.1539C243.669 101.903 228.477 121.03 217.781 136.17C216.356 138.187 214.921 138.68 208.781 139.261C195.633 140.505 167.537 144.675 154.459 147.323C144.569 149.326 141.469 149.637 140.883 148.688C140.124 147.461 139.643 145.117 135.883 124.339C131.582 100.566 131.631 70.0557 135.997 53.464ZM248.976 135.073C248.976 134.065 265.711 113.153 273.953 103.862L280.429 96.5601L286.865 103.45C293.052 110.072 312.976 134.438 312.976 135.381C312.976 135.633 298.576 135.839 280.976 135.839C263.376 135.839 248.976 135.494 248.976 135.073ZM230.631 161.951C232.798 160.838 235.495 160.758 240.476 160.539C254.212 159.934 312.642 160.039 321.822 160.685C330.658 161.307 331.3 161.507 333.559 164.341C339.626 171.95 362.79 210.852 374.941 233.839L383.134 249.339L377.9 259.839C364.274 287.175 335.287 335.953 331.357 338.162C327.209 340.494 233.801 340.703 230.057 338.389C224.742 335.104 178.976 256.189 178.976 250.309C178.976 245.563 203.792 200.679 221.657 173.114C226.069 166.306 227.941 163.333 230.631 161.951ZM147.976 173.765C147.976 172.729 163.437 169.689 189.976 165.505C194.829 164.741 196.976 164.85 196.976 165.863C196.976 166.427 193.743 172.164 189.791 178.613C185.839 185.062 178.803 197.231 174.156 205.654C169.509 214.078 165.375 220.603 164.97 220.154C163.446 218.469 147.976 176.238 147.976 173.765ZM370.605 177.549C366.959 171.615 363.976 166.3 363.976 165.738C363.976 164.618 366.462 164.874 385.476 167.951C403.328 170.841 412.068 172.916 412.638 174.4C413.174 175.797 411.835 179.924 403.735 201.839C398.752 215.323 396.125 221.329 395.494 220.682C395.31 220.493 391.127 213.139 386.197 204.339C381.267 195.539 374.251 183.484 370.605 177.549ZM55.4563 208.916C70.2412 199.264 86.0432 191.845 107.976 184.257C114.851 181.878 121.4 179.911 122.529 179.886C124.21 179.847 125.002 181.152 126.897 187.089C130.602 198.694 138.585 219.773 145.02 234.944C148.296 242.666 150.976 249.569 150.976 250.285C150.976 251.382 147.38 260.102 141.468 273.339C139.552 277.629 128.659 307.087 126.031 315.089C124.811 318.801 123.512 321.836 123.144 321.832C120.848 321.807 96.9853 312.975 86.7212 308.351C58.4753 295.627 35.9973 278.348 27.4763 262.809C24.8452 258.012 24.4763 256.35 24.4763 249.3C24.4763 241.884 24.7473 240.812 27.9763 235.461C32.3972 228.134 45.6982 215.286 55.4563 208.916ZM433.406 190.339C434.856 185.939 436.239 181.777 436.478 181.089C437.089 179.333 437.533 179.413 449.643 183.456C483.434 194.74 506.93 207.664 522.976 223.795C532.969 233.84 536.218 239.674 536.803 248.626C537.165 254.174 536.826 255.704 533.918 261.626C527.131 275.452 506.569 291.946 480.655 304.351C465.64 311.539 442.716 320.092 439.675 319.642C438.417 319.455 437.272 318.187 436.692 316.339C433.552 306.325 421.841 276.392 416.293 264.198L409.77 249.86L416.426 234.344C423.577 217.674 429.188 203.132 433.406 190.339ZM148.213 327.41C147.393 326.59 152.728 310.583 160.151 291.589C162.891 284.577 165.284 278.839 165.468 278.839C165.653 278.839 168.166 283.226 171.053 288.589C178.639 302.676 179.308 303.841 189.181 320.169C194.113 328.326 197.907 335.242 197.611 335.537C196.334 336.814 149.994 329.19 148.213 327.41ZM371.275 321.22C380.478 305.958 382.857 301.792 390.199 288.089C395.084 278.971 396.271 277.627 397.269 280.089C409.077 309.227 414.402 324.06 413.754 326.005C413.541 326.644 409.342 328.005 404.422 329.03C393.877 331.228 363.721 335.918 363.239 335.435C363.055 335.251 366.671 328.854 371.275 321.22ZM358.553 360.284C375.299 358.34 395.143 355.3 406.476 352.944C411.426 351.915 416.918 351.021 418.681 350.956C421.634 350.848 421.935 351.133 422.515 354.589C422.861 356.652 423.539 359.689 424.021 361.339C428.685 377.306 430.223 423.199 426.652 439.839C423.069 456.53 416.896 467.45 408.131 472.602C403.851 475.118 402.67 475.331 393.476 475.237C385.459 475.154 381.79 474.585 374.976 472.367C355.67 466.083 332.222 451.74 311.976 433.83C307.851 430.181 303.238 426.134 301.726 424.837C300.214 423.54 298.976 422.064 298.976 421.558C298.976 421.052 301.83 417.421 305.319 413.489C313.29 404.504 328.509 385.26 337.466 372.839C341.234 367.614 344.613 362.989 344.974 362.562C345.335 362.134 351.446 361.109 358.553 360.284ZM134.304 384.339C136.106 371.974 139.638 354.195 140.602 352.635C141.333 351.453 143.997 351.758 163.47 355.252C171.166 356.633 186.241 358.736 196.97 359.924C207.698 361.113 216.518 362.143 216.569 362.212C232.515 383.972 247.992 403.327 258.726 414.931C261.613 418.052 263.976 421.076 263.976 421.649C263.976 422.223 258.987 426.967 252.89 432.192C213.916 465.588 174.738 481.857 154.058 473.232C144.445 469.223 137.527 456.951 133.822 437.339C132.007 427.726 132.275 398.269 134.304 384.339ZM276.855 399.059C267.955 389.697 248.976 366.383 248.976 364.812C248.976 364.397 263.376 364.053 280.976 364.048C298.576 364.043 312.976 364.343 312.976 364.716C312.976 366.098 304.357 377.321 291.23 393.033C285.261 400.178 283.173 402.91 281.322 402.758C280.088 402.656 278.959 401.273 276.855 399.059ZM304.361 217.01C304.361 208.761 304.469 205.712 304.771 205.41C304.997 205.184 305.318 205 305.486 205C305.763 205 310.181 207.424 313.844 209.586L315.296 210.442V231.921V253.401L311.281 255.761C303.149 260.541 299.906 262.321 299.334 262.321C298.802 262.321 295.252 260.381 287.275 255.732C285.536 254.719 284.531 254.24 283.951 253.449C283.057 252.229 283.176 250.267 283.179 244.456C283.182 239.926 283.275 235.879 283.386 235.464C283.526 234.946 284.836 233.994 287.568 232.427C289.756 231.171 293.025 229.263 294.832 228.187C296.638 227.11 298.448 226.125 298.854 225.996C299.372 225.832 300.241 226.125 301.776 226.982C302.977 227.653 304.05 228.201 304.16 228.201C304.271 228.201 304.361 223.165 304.361 217.01ZM206.116 234.247L213.634 229.867C217.769 227.458 221.407 225.483 221.718 225.479C222.03 225.475 224.183 226.568 226.502 227.908C227.88 228.703 229.622 229.706 231.183 230.602C232.251 231.215 233.235 231.779 233.958 232.191C235.739 233.208 237.312 234.222 237.455 234.447C237.598 234.671 237.717 240.097 237.72 246.504C237.725 257.04 237.671 258.174 237.159 258.37C236.802 258.507 235.443 257.911 233.485 256.76C232.583 256.23 231.569 255.636 230.684 255.122C229.893 254.661 229.206 254.264 228.794 254.029C227.758 253.438 227.133 252.818 226.987 252.235C226.864 251.746 226.783 249.05 226.809 246.244C226.84 242.775 226.726 240.989 226.453 240.66C225.867 239.955 222.46 238.096 221.755 238.097C221.087 238.098 217.197 240.337 216.8 240.95C216.662 241.163 216.544 243.871 216.539 246.967C216.533 250.064 216.415 252.766 216.277 252.973C215.816 253.664 206.864 258.6 206.397 258.421C206.021 258.276 205.953 256.051 206.026 246.246L206.116 234.247ZM244.987 234.923C245.222 234.608 248.72 232.432 252.761 230.088C256.802 227.744 260.325 225.823 260.591 225.82C260.856 225.816 262.471 226.642 264.179 227.655C265.887 228.669 267.899 229.837 268.651 230.25C269.403 230.665 271.441 231.837 273.179 232.855L276.34 234.706V243.866C276.34 250.784 276.235 253.108 275.913 253.365C274.852 254.211 260.978 261.98 260.529 261.98C260.062 261.98 256.216 259.891 251.736 257.206C250.702 256.587 249.011 255.626 247.977 255.071C246.743 254.41 245.954 254.034 245.449 253.423C244.497 252.271 244.56 250.28 244.56 243.942C244.56 237.719 244.672 235.346 244.987 234.923ZM324.766 233.169C329.844 230.254 333.669 228.026 335.447 226.947C336.475 226.323 337.694 225.813 338.157 225.813C338.906 225.813 347.396 230.51 352.088 233.521L353.854 234.653L353.968 237.051C354.031 238.371 353.999 239.798 353.897 240.223C353.679 241.141 345.272 246.292 344.172 246.182C343.571 246.122 343.476 245.825 343.385 243.733C343.324 242.297 343.093 241.147 342.804 240.834C342.631 240.645 342.052 240.252 341.336 239.823C340.966 239.602 340.558 239.37 340.151 239.152L337.976 237.99L335.534 239.439C334.191 240.236 333.001 241.174 332.89 241.524C332.677 242.193 332.726 245.362 332.964 246.357C333.096 246.91 337.85 249.878 343.791 253.117C345.273 253.925 346.888 254.945 347.379 255.383L348.272 256.181L347.537 256.805C346.274 257.876 338.657 261.981 337.98 261.955C337.627 261.941 333.954 259.982 329.82 257.6L322.302 253.271L322.206 244.575C322.153 239.792 322.185 235.568 322.278 235.189C322.376 234.785 323.405 233.95 324.766 233.169ZM294.11 241.199L296.416 239.832C297.685 239.08 298.954 238.458 299.237 238.451C299.52 238.443 300.75 239.017 301.97 239.725L304.19 241.012L304.288 244.086L304.385 247.159L301.825 248.613L299.265 250.067L296.691 248.602L294.117 247.138L294.113 244.169L294.11 241.199ZM263.382 268.258C263.832 267.717 265.513 266.7 273.602 262.079C276.325 260.523 278.785 259.251 279.07 259.252C279.696 259.255 279.733 259.274 287.617 263.819C291.094 265.824 294.246 267.77 294.622 268.143C295.271 268.788 295.306 269.276 295.306 277.721V286.62L294.218 287.522C292.976 288.55 280.457 295.728 279.443 295.993C278.779 296.166 272.93 293.127 272.925 292.606C272.924 292.468 273.481 292.122 274.164 291.837C275.367 291.336 275.456 291.351 277.074 292.344C277.991 292.908 278.932 293.358 279.164 293.342C279.396 293.328 282.508 291.6 286.079 289.504L292.572 285.692L292.661 277.674L292.75 269.656L288.389 267.168C285.991 265.799 282.978 264.072 281.692 263.33C280.407 262.587 279.2 261.98 279.01 261.98C278.9 261.98 278.508 262.156 277.991 262.428C277.618 262.626 277.179 262.873 276.733 263.141C275.671 263.78 272.726 265.516 270.189 266.999L265.576 269.695L265.484 277.579L265.393 285.462L267.364 286.697C269.908 288.293 270.723 288.492 271.57 287.728C272.199 287.159 272.239 286.633 272.239 278.986V270.851H273.627H275.015L274.908 279.751L274.802 288.65L273.644 289.683C272.588 290.624 272.317 290.703 270.569 290.575C269.069 290.465 268.108 290.112 266.161 288.956C264.791 288.142 263.528 287.21 263.354 286.885C262.84 285.927 262.866 268.879 263.382 268.258ZM299.158 271.568C297.033 270.762 296.633 267.961 298.494 266.923C300.904 265.58 303.623 268.128 302.159 270.357C301.368 271.563 300.29 271.998 299.158 271.568ZM299.235 270.509C298.858 270.509 298.759 268.028 299.122 267.666C299.404 267.384 299.709 267.379 300.403 267.646C301.009 267.878 301.192 270.509 300.602 270.509C300.414 270.509 300.26 270.279 300.26 269.998C300.26 269.716 300.107 269.486 299.919 269.486C299.731 269.486 299.577 269.716 299.577 269.998C299.577 270.134 299.541 270.259 299.482 270.351C299.42 270.448 299.332 270.509 299.235 270.509ZM299.919 268.803C299.731 268.803 299.577 268.65 299.577 268.462C299.577 268.311 299.677 268.182 299.813 268.138C299.847 268.127 299.882 268.121 299.919 268.121C300.107 268.121 300.26 268.274 300.26 268.462C300.26 268.65 300.107 268.803 299.919 268.803ZM277.627 277.306C275.776 275.459 276.616 272.125 279.216 270.994C280.599 270.393 284.949 270.382 286.346 270.977C287.888 271.633 288.976 272.926 289.213 274.384C289.414 275.624 289.412 275.628 288.166 275.628C287.509 275.628 287.15 275.559 286.911 275.327C286.784 275.204 286.691 275.036 286.605 274.809C286.103 273.491 284.932 272.898 282.833 272.898C280.645 272.898 279.416 273.567 279.416 274.756C279.416 275.655 279.575 275.714 284.033 276.491C288.006 277.183 289.24 277.823 289.727 279.447C290.922 283.428 287.297 285.827 281.167 285.11C278.41 284.788 276.862 283.705 276.328 281.725C275.903 280.15 275.95 280.045 277.139 279.915C278.198 279.799 278.463 279.98 278.991 281.179C279.513 282.365 280.621 282.793 283.174 282.793C285.649 282.793 286.801 282.38 287.118 281.383C287.441 280.367 286.381 279.509 284.455 279.229C279.557 278.515 278.555 278.233 277.627 277.306Z" fill="#00ccec"/>
</svg>
