<svg aria-hidden="true" style="position: absolute; width: 0; height: 0; overflow: hidden;" version="1.1" xmlns="http://www.w3.org/2000/svg" xmlns:xlink="http://www.w3.org/1999/xlink">
<defs>
<symbol id="icon-Black" viewBox="0 0 32 32">
<path d="M14.359 1.021c-7.082 0.964-12.502 6.432-13.394 13.52-0.141 1.169-0.096 3.226 0.096 4.337 0.578 3.245 2.010 6.059 4.231 8.308 4.527 4.575 11.294 5.892 17.208 3.348 4.052-1.741 7.236-5.269 8.578-9.504 0.501-1.587 0.706-2.956 0.7-4.723 0-1.491-0.141-2.564-0.494-3.92-0.957-3.618-3.268-6.824-6.427-8.932-1.387-0.925-3.454-1.799-5.143-2.178-1.56-0.353-3.827-0.463-5.355-0.257zM18.205 2.692c5.76 0.758 10.511 5.192 11.654 10.885 0.809 3.997-0.135 8.038-2.613 11.245-0.411 0.527-1.149 1.349-1.213 1.349-0.032 0-0.051-0.373-0.051-0.829 0-0.662-0.032-0.945-0.154-1.439-0.475-1.863-1.894-3.29-3.776-3.791-0.533-0.141-0.559-0.141-5.734-0.141-5.926 0-5.58-0.026-6.774 0.559-0.597 0.296-0.745 0.405-1.323 0.977-0.571 0.578-0.681 0.726-0.976 1.324-0.424 0.861-0.527 1.298-0.571 2.429l-0.039 0.919-0.25-0.244c-1.246-1.202-2.53-3.322-3.153-5.198-0.507-1.529-0.693-2.731-0.7-4.395-0.006-7.216 5.56-13.198 12.79-13.751 0.828-0.064 1.913-0.026 2.883 0.103zM21.608 21.706c0.905 0.218 1.849 0.945 2.273 1.754 0.411 0.784 0.443 0.977 0.469 2.635l0.026 1.491-0.591 0.386c-3.043 1.973-6.864 2.654-10.434 1.87-1.477-0.321-3.3-1.080-4.495-1.87l-0.533-0.347v-1.394c0-0.765 0.026-1.549 0.064-1.735 0.032-0.193 0.186-0.591 0.327-0.893 0.469-0.951 1.278-1.613 2.312-1.889 0.527-0.141 9.985-0.148 10.582-0.006z"></path>
<path d="M15.354 6.798c-3.165 0.585-5.047 3.9-3.942 6.933 0.469 1.292 1.413 2.332 2.645 2.924 0.706 0.341 1.162 0.456 2.003 0.501 1.49 0.077 2.838-0.424 3.936-1.478 1.798-1.728 2.087-4.549 0.687-6.663-1.13-1.703-3.288-2.596-5.329-2.217zM17.46 8.526c1.111 0.392 1.997 1.324 2.331 2.448 0.154 0.514 0.154 1.414 0 1.928-0.36 1.227-1.348 2.204-2.536 2.506-0.527 0.135-1.406 0.135-1.868-0.007-1.239-0.36-2.222-1.362-2.536-2.57-0.128-0.508-0.122-1.311 0.019-1.831 0.334-1.208 1.368-2.23 2.555-2.532 0.494-0.122 1.612-0.090 2.035 0.058z"></path>
</symbol>
</defs>
</svg>
