<svg aria-hidden="true" style="position: absolute; width: 0; height: 0; overflow: hidden;" version="1.1" xmlns="http://www.w3.org/2000/svg" xmlns:xlink="http://www.w3.org/1999/xlink">
<defs>
<symbol id="icon-trash" viewBox="0 0 31 32">
<path d="M11.347 0.597c-1.365 0.704-2.325 2.069-2.475 3.541l-0.128 0.981-3.947 0.043-3.947 0.064-0.448 0.597c-0.405 0.555-0.405 0.64-0.107 1.173 0.277 0.533 0.448 0.576 1.728 0.64l1.429 0.064 0.064 10.283c0.064 9.045 0.107 10.368 0.427 11.072 0.491 1.067 1.429 2.005 2.539 2.517 0.875 0.384 1.387 0.427 8.768 0.427 4.971 0 8.043-0.085 8.427-0.235 1.088-0.405 2.219-1.323 2.688-2.197 0.469-0.853 0.469-1.109 0.576-11.328l0.107-10.453 1.493-0.107c1.387-0.107 1.515-0.149 1.792-0.725 0.256-0.533 0.235-0.661-0.128-1.173l-0.427-0.555-3.947-0.064-3.947-0.043-0.149-1.045c-0.128-1.003-0.875-2.368-1.6-2.965-1.088-0.896-2.005-1.109-4.843-1.109-2.667 0-2.859 0.021-3.947 0.597zM18.515 3.2c0.277 0.299 0.576 0.853 0.661 1.216l0.149 0.704h-8l0.128-0.704c0.064-0.363 0.427-0.96 0.789-1.28 0.661-0.619 0.661-0.619 3.2-0.533 2.368 0.064 2.56 0.107 3.072 0.597zM24.382 17.813v10.133l-0.619 0.683-0.619 0.704-7.339 0.064c-4.587 0.043-7.595-0.021-8.064-0.149-1.515-0.448-1.493-0.256-1.493-11.52v-10.048h18.133v10.133z"></path>
<path d="M10.878 12.544c-0.32 0.341-0.363 1.088-0.363 6.080v5.675l0.533 0.405c0.597 0.469 1.323 0.405 1.771-0.128 0.192-0.256 0.256-1.792 0.256-6.037 0-4.907-0.043-5.76-0.341-6.037-0.448-0.469-1.429-0.427-1.856 0.043z"></path>
<path d="M17.811 12.416c-0.192 0.192-0.256 1.856-0.256 6.165 0 4.992 0.043 5.931 0.32 6.165 0.512 0.427 1.429 0.32 1.856-0.213 0.341-0.427 0.384-0.981 0.384-5.952 0-6.144-0.064-6.421-1.365-6.421-0.363 0-0.789 0.107-0.939 0.256z"></path>
</symbol>
</defs>
</svg>
